<?xml version="1.0" standalone="no"?>
<!DOCTYPE svg PUBLIC "-//W3C//DTD SVG 20010904//EN"
 "http://www.w3.org/TR/2001/REC-SVG-20010904/DTD/svg10.dtd">
<svg version="1.0" xmlns="http://www.w3.org/2000/svg"
 width="300.000000pt" height="300.000000pt" viewBox="0 0 300.000000 300.000000"
 preserveAspectRatio="xMidYMid meet">
<metadata>
Created by potrace 1.10, written by Peter Selinger 2001-2011
</metadata>
<g transform="translate(0.000000,300.000000) scale(0.100000,-0.100000)"
fill="#000000" stroke="none">
<path d="M1628 2501 c-62 -20 -109 -47 -150 -85 -26 -25 -27 -25 -50 -7 -159
125 -391 90 -563 -84 -97 -98 -165 -235 -165 -332 0 -25 -4 -33 -18 -33 -47 0
-116 -35 -166 -84 -189 -185 -149 -514 91 -740 l45 -43 -12 -61 c-54 -273 115
-487 437 -554 121 -25 208 -19 373 23 l115 30 65 -17 c96 -25 278 -30 365 -10
176 42 331 161 402 311 32 69 38 90 41 169 4 91 4 91 46 133 56 58 113 154
139 238 18 57 22 93 22 195 -1 114 -3 131 -30 195 -54 132 -189 235 -305 235
l-40 0 0 53 c0 28 -11 82 -24 118 -93 265 -379 426 -618 350z m237 -43 c65
-16 149 -66 204 -121 92 -91 143 -196 159 -322 7 -59 6 -60 -25 -88 -18 -16
-37 -26 -42 -23 -5 3 -11 -3 -14 -14 -7 -26 4 -25 49 5 59 40 106 49 169 31
142 -42 238 -196 239 -386 0 -142 -54 -282 -151 -390 -55 -60 -56 -62 -54
-118 6 -213 -162 -414 -399 -478 -84 -22 -216 -23 -345 0 l-100 17 -105 -26
c-214 -52 -365 -42 -528 35 -191 91 -277 252 -237 445 l16 76 -68 74 c-76 82
-122 154 -161 247 -21 52 -26 80 -26 158 -1 83 2 102 26 153 39 84 81 132 140
161 59 30 86 31 143 10 78 -30 79 -30 71 -3 -5 13 -14 44 -21 69 -8 25 -14 36
-14 24 -1 -12 4 -35 10 -53 15 -44 4 -50 -29 -18 -28 27 -28 30 -20 90 19 147
148 318 293 388 64 31 78 34 160 33 77 0 97 -3 140 -26 58 -30 128 -98 146
-139 11 -28 29 -39 29 -18 0 6 -10 33 -22 61 l-22 51 30 24 c93 79 225 104
359 71z"/>
<path d="M1695 2371 c-90 -40 -138 -143 -138 -291 0 -161 57 -263 166 -295 64
-19 90 -19 156 1 70 21 132 82 156 155 53 158 -12 363 -135 425 -57 30 -147
32 -205 5z m181 -30 c89 -41 139 -142 139 -281 0 -75 -4 -91 -29 -137 -40 -72
-89 -104 -168 -110 -111 -8 -179 45 -215 166 -21 74 -14 210 15 266 52 103
157 142 258 96z"/>
<path d="M1850 2289 c0 -5 -4 -8 -8 -5 -9 5 -162 -80 -162 -89 0 -9 73 24 112
50 42 28 54 30 61 13 3 -7 6 -1 6 15 1 15 -1 27 -4 27 -3 0 -5 -5 -5 -11z"/>
<path d="M1077 2314 c-186 -97 -160 -458 41 -555 104 -51 229 -22 298 68 77
101 62 305 -31 427 -64 84 -208 112 -308 60z m228 -34 c125 -77 169 -322 78
-431 -56 -66 -174 -89 -252 -50 -90 47 -141 143 -141 271 0 112 38 186 114
222 54 25 150 20 201 -12z"/>
<path d="M1217 2247 c-3 -8 -34 -26 -69 -40 -34 -14 -53 -26 -42 -27 45 -1
140 58 122 75 -3 3 -8 0 -11 -8z"/>
<path d="M676 1820 c-109 -35 -175 -152 -146 -261 24 -92 108 -192 200 -239
170 -87 367 28 347 202 -13 109 -101 228 -203 275 -57 26 -154 37 -198 23z
m179 -49 c146 -67 231 -259 160 -363 -36 -52 -101 -81 -173 -76 -70 5 -118 28
-182 85 -92 83 -123 190 -79 280 46 94 160 125 274 74z"/>
<path d="M741 1749 c-2 -35 65 -56 93 -29 5 5 -10 6 -33 3 -36 -5 -42 -3 -50
18 -6 15 -10 18 -10 8z"/>
<path d="M712 1723 c-5 -16 -24 -43 -41 -62 -46 -49 -31 -49 18 0 25 25 41 51
41 65 0 32 -6 30 -18 -3z"/>
<path d="M2220 1813 c-133 -46 -241 -179 -241 -297 0 -102 65 -181 172 -206
132 -32 276 45 344 184 98 201 -66 392 -275 319z m188 -43 c103 -63 106 -218
6 -329 -77 -85 -158 -114 -254 -91 -56 13 -112 55 -136 101 -48 94 38 253 171
315 66 31 165 33 213 4z"/>
<path d="M2285 1710 c-33 -4 -49 -8 -35 -9 40 -5 94 0 110 10 17 10 22 10 -75
-1z"/>
<path d="M1423 1591 c-82 -21 -203 -128 -278 -246 -57 -88 -132 -253 -145
-317 -26 -133 51 -238 175 -238 58 0 97 18 165 76 114 98 157 99 329 13 132
-66 199 -81 264 -60 113 38 160 165 109 297 -56 147 -278 381 -427 450 -56 26
-143 37 -192 25z m182 -60 c124 -59 311 -250 382 -388 30 -61 37 -86 38 -133
0 -66 -18 -99 -75 -137 -57 -39 -119 -32 -239 28 -118 58 -173 79 -210 79 -52
0 -116 -31 -181 -86 -36 -30 -81 -59 -100 -65 -79 -24 -176 38 -187 119 -11
80 48 229 150 384 138 210 270 272 422 199z"/>
<path d="M1415 1505 c6 -2 22 -6 38 -9 18 -4 27 -13 27 -26 0 -11 4 -20 10
-20 13 0 1 32 -18 48 -9 6 -27 12 -41 11 -14 0 -21 -2 -16 -4z"/>
<path d="M1464 1429 c-4 -6 -39 -27 -78 -45 -54 -25 -62 -32 -36 -27 51 9 113
40 128 63 7 11 8 20 3 20 -6 0 -13 -5 -17 -11z"/>
<path d="M1860 1181 c0 -5 9 -11 20 -14 24 -6 26 -30 4 -48 -14 -11 -18 -10
-30 6 -13 17 -14 17 -14 2 0 -10 7 -20 15 -23 8 -4 15 -12 15 -18 0 -7 6 -20
13 -29 11 -16 12 -14 12 15 0 24 6 36 20 42 20 9 20 10 -9 42 -29 33 -46 42
-46 25z"/>
<path d="M1112 1078 c-14 -14 -15 -38 -2 -58 7 -11 8 -6 4 17 -5 25 -3 34 10
39 23 9 48 -16 43 -43 -2 -12 0 -20 4 -17 14 8 10 41 -7 58 -19 19 -36 20 -52
4z"/>
<path d="M945 1242 c-17 -15 -46 -40 -65 -55 -33 -27 -34 -28 -5 -13 37 19
112 82 105 89 -3 3 -19 -7 -35 -21z"/>
<path d="M2338 1113 c31 -6 28 -16 -15 -41 -21 -12 -33 -22 -28 -22 6 0 25 9
43 20 40 25 43 51 5 49 -24 -2 -25 -2 -5 -6z"/>
<path d="M2234 972 c-3 -167 -134 -283 -339 -301 -76 -6 -78 -7 -37 -14 85
-15 246 42 307 108 61 65 101 193 78 252 -6 15 -8 2 -9 -45z"/>
<path d="M800 890 c-10 -81 51 -169 154 -222 89 -46 226 -58 296 -25 33 15 33
16 5 9 -60 -14 -208 -8 -254 11 -104 42 -162 104 -187 197 -7 25 -13 38 -14
30z"/>
<path d="M1490 714 c0 -11 28 -38 65 -64 11 -7 4 1 -15 20 l-35 33 30 13 30
13 -37 -2 c-21 -1 -38 -7 -38 -13z"/>
<path d="M1604 705 c22 -8 51 -17 64 -20 13 -2 46 -11 73 -20 27 -9 55 -15 62
-12 14 5 -140 53 -198 62 l-40 5 39 -15z"/>
<path d="M513 2104 c-3 -9 2 -32 12 -50 33 -61 72 -31 42 32 -18 36 -44 45
-54 18z"/>
<path d="M2413 2064 c-7 -19 21 -44 49 -44 27 0 35 30 13 46 -25 19 -54 18
-62 -2z"/>
<path d="M446 981 c-21 -23 -14 -41 15 -41 32 0 59 19 59 40 0 27 -50 27 -74
1z"/>
<path d="M2527 903 c-10 -9 -8 -55 2 -72 13 -21 41 -5 41 23 0 14 -7 32 -16
40 -18 18 -18 18 -27 9z"/>
</g>
</svg>
